<svg xmlns="http://www.w3.org/2000/svg" xmlns:xlink="http://www.w3.org/1999/xlink" width="400" height="382" version="1.1" viewBox="0 0 399 382"><g id="surface1"><path style="stroke:none;fill-rule:nonzero;fill:#fff;fill-opacity:1" d="M 0 0 L 399 0 L 399 381.734375 L 0 381.734375 Z M 0 0"/><path style="stroke:none;fill-rule:nonzero;fill:#484848;fill-opacity:1" d="M 75.144531 245.476562 L 75.144531 303.796875 L 105.042969 303.796875 L 105.042969 308.570312 L 69.585938 308.570312 L 69.585938 245.476562 Z M 140.496094 309.363281 C 136.261719 309.363281 132.03125 308.570312 128.324219 306.976562 C 124.355469 305.386719 121.183594 303.265625 118.269531 300.351562 C 115.625 297.433594 113.242188 293.988281 111.921875 290.277344 C 110.332031 286.300781 109.539062 281.792969 109.539062 277.023438 C 109.539062 272.25 110.332031 268.007812 111.921875 264.035156 C 113.242188 260.058594 115.625 256.875 118.269531 253.960938 C 121.183594 251.042969 124.355469 248.921875 128.324219 247.332031 C 132.03125 245.742188 136.261719 244.945312 140.496094 244.945312 C 144.996094 244.945312 148.964844 245.742188 152.667969 247.332031 C 156.636719 248.921875 159.8125 251.042969 162.457031 253.960938 C 165.367188 256.875 167.484375 260.058594 169.074219 264.035156 C 170.660156 268.007812 171.453125 272.25 171.453125 277.023438 C 171.453125 281.792969 170.660156 286.300781 169.074219 290.277344 C 167.484375 293.988281 165.367188 297.433594 162.457031 300.351562 C 159.8125 303.265625 156.636719 305.386719 152.667969 306.976562 C 148.964844 308.570312 144.996094 309.363281 140.496094 309.363281 Z M 140.496094 304.59375 C 145.257812 304.59375 149.492188 303.53125 153.460938 301.144531 C 157.164062 299.027344 160.339844 295.84375 162.457031 291.601562 C 164.839844 287.625 165.898438 282.855469 165.898438 277.023438 C 165.898438 271.457031 164.839844 266.683594 162.457031 262.441406 C 160.339844 258.464844 157.164062 255.285156 153.460938 252.898438 C 149.492188 250.777344 145.257812 249.71875 140.496094 249.71875 C 135.734375 249.71875 131.5 250.777344 127.53125 252.898438 C 123.828125 255.285156 120.652344 258.464844 118.535156 262.441406 C 116.15625 266.683594 115.097656 271.457031 115.097656 277.023438 C 115.097656 282.855469 116.15625 287.625 118.535156 291.601562 C 120.652344 295.84375 123.828125 299.027344 127.53125 301.144531 C 131.5 303.53125 135.734375 304.59375 140.496094 304.59375 Z M 177.273438 245.476562 L 223.3125 245.476562 L 223.3125 250.25 L 203.203125 250.25 L 203.203125 308.570312 L 197.648438 308.570312 L 197.648438 250.25 L 177.273438 250.25 Z M 234.953125 245.476562 L 240.511719 245.476562 L 240.511719 285.242188 C 240.511719 289.746094 241.304688 293.457031 242.890625 296.375 C 244.480469 299.027344 246.597656 301.144531 249.507812 302.472656 C 252.152344 303.796875 255.0625 304.328125 258.503906 304.328125 C 261.941406 304.328125 264.851562 303.796875 267.5 302.472656 C 270.144531 301.144531 272.261719 299.027344 273.847656 296.375 C 275.4375 293.457031 276.230469 289.746094 276.230469 285.242188 L 276.230469 245.476562 L 281.789062 245.476562 L 281.789062 284.976562 C 281.789062 289.21875 281.257812 292.929688 279.933594 295.84375 C 278.875 299.027344 277.023438 301.410156 274.90625 303.265625 C 272.792969 305.386719 270.144531 306.714844 267.5 307.773438 C 264.589844 308.835938 261.679688 309.097656 258.503906 309.097656 C 254.269531 309.097656 250.300781 308.304688 246.863281 306.714844 C 243.15625 304.859375 240.246094 302.207031 238.128906 298.761719 C 236.011719 295.3125 234.953125 290.542969 234.953125 284.976562 Z M 299.25 293.457031 C 299.515625 295.3125 300.308594 296.90625 301.632812 298.496094 C 302.691406 300.351562 304.542969 301.675781 306.660156 302.738281 C 308.773438 303.796875 311.6875 304.328125 315.390625 304.328125 C 320.152344 304.328125 323.855469 303.265625 326.238281 300.882812 C 328.621094 298.761719 329.941406 295.84375 329.941406 292.664062 C 329.941406 290.011719 329.148438 287.890625 327.824219 286.035156 C 326.503906 284.445312 324.652344 283.121094 322.535156 282.058594 C 320.152344 281 317.507812 279.9375 314.597656 279.144531 C 312.214844 278.347656 309.832031 277.816406 307.453125 277.023438 C 305.070312 275.960938 303.21875 275.167969 301.367188 273.839844 C 299.25 272.78125 297.925781 271.191406 296.867188 269.335938 C 295.808594 267.214844 295.28125 265.09375 295.28125 262.175781 C 295.28125 258.730469 296.074219 255.550781 297.664062 253.164062 C 299.25 250.511719 301.632812 248.65625 304.542969 247.066406 C 307.453125 245.742188 310.890625 244.945312 315.125 244.945312 C 318.566406 244.945312 321.476562 245.476562 324.121094 246.539062 C 326.765625 247.597656 328.882812 248.921875 330.472656 250.777344 C 332.324219 252.632812 333.382812 254.753906 334.175781 256.875 L 329.414062 258.730469 C 328.882812 257.40625 328.089844 256.082031 326.765625 254.488281 C 325.707031 253.164062 323.855469 251.839844 322.003906 251.042969 C 319.886719 249.984375 317.507812 249.71875 314.859375 249.71875 C 312.214844 249.71875 309.832031 249.984375 307.71875 251.042969 C 305.601562 251.839844 303.746094 253.429688 302.425781 255.019531 C 301.367188 256.875 300.574219 258.996094 300.574219 261.382812 C 300.574219 264.035156 301.367188 266.152344 302.691406 267.746094 C 304.277344 269.335938 306.128906 270.394531 308.511719 271.457031 C 310.890625 272.25 313.539062 273.3125 316.449219 274.105469 L 323.59375 276.492188 C 325.707031 277.554688 327.824219 278.613281 329.675781 279.9375 C 331.265625 281.265625 332.851562 282.855469 333.910156 284.710938 C 334.96875 286.832031 335.5 289.21875 335.5 291.867188 C 335.5 295.050781 334.703125 297.964844 333.382812 300.617188 C 331.792969 303.265625 329.675781 305.386719 326.765625 306.976562 C 323.855469 308.570312 320.152344 309.363281 315.390625 309.363281 C 311.421875 309.363281 307.980469 308.570312 305.070312 307.507812 C 302.160156 306.183594 299.777344 304.59375 297.925781 302.472656 C 296.074219 300.351562 294.753906 297.964844 294.222656 295.578125 Z M 201.085938 49.574219 C 190.503906 67.597656 183.890625 84.300781 179.65625 100.207031 C 184.949219 104.710938 189.710938 109.484375 194.207031 114.785156 L 201.085938 101.265625 L 207.96875 114.785156 C 212.199219 109.484375 216.960938 104.710938 222.253906 100.207031 C 218.019531 84.300781 211.40625 67.597656 201.085938 49.574219 Z M 201.085938 49.574219"/><path style="stroke:none;fill-rule:nonzero;fill:#484848;fill-opacity:1" d="M 142.613281 80.589844 C 141.554688 94.636719 142.085938 107.097656 143.40625 118.496094 C 143.671875 118.496094 148.433594 132.28125 162.191406 144.210938 C 165.632812 147.390625 171.453125 152.960938 175.953125 159.320312 C 176.746094 156.671875 181.242188 140.234375 191.828125 118.761719 C 180.449219 105.242188 164.574219 91.988281 142.613281 80.589844 Z M 259.03125 80.589844 C 237.070312 91.988281 221.195312 105.242188 209.820312 118.761719 C 220.402344 140.234375 224.902344 156.671875 225.695312 159.320312 C 230.191406 152.960938 236.011719 147.390625 239.453125 144.210938 C 253.476562 132.28125 258.238281 118.496094 258.238281 118.496094 C 259.5625 107.097656 260.089844 94.636719 259.03125 80.589844 Z M 259.03125 80.589844"/><path style="stroke:none;fill-rule:nonzero;fill:#900;fill-opacity:1" d="M 101.074219 102.324219 C 101.867188 112.664062 102.925781 126.183594 112.1875 140.234375 C 117.476562 142.355469 124.09375 146.066406 129.382812 149.246094 C 131.5 132.015625 137.585938 118.496094 137.585938 118.496094 C 125.152344 113.195312 115.890625 114.253906 101.074219 102.324219 Z M 101.074219 102.324219"/><path style="stroke:none;fill-rule:nonzero;fill:#069;fill-opacity:1" d="M 301.101562 102.324219 C 286.285156 114.253906 277.023438 113.195312 264.324219 118.496094 C 264.324219 118.496094 270.410156 132.015625 272.527344 149.246094 C 277.816406 146.066406 284.699219 142.355469 289.988281 140.234375 C 298.984375 126.183594 300.042969 112.664062 301.101562 102.324219 Z M 301.101562 102.324219"/><path style="stroke:none;fill-rule:nonzero;fill:#396;fill-opacity:1" d="M 201.085938 110.277344 C 168.542969 173.371094 173.835938 200.410156 184.417969 216.316406 C 192.886719 228.511719 209.289062 228.511719 217.757812 216.316406 C 228.339844 200.410156 233.632812 173.371094 201.085938 110.277344 Z M 201.085938 110.277344"/><path style="stroke:none;fill-rule:nonzero;fill:#484848;fill-opacity:1" d="M 140.496094 122.472656 C 133.351562 141.03125 121.183594 188.214844 156.636719 215.257812 C 164.046875 220.824219 172.777344 220.558594 178.863281 215.785156 C 173.042969 205.710938 168.277344 191.664062 174.628906 164.886719 C 161.132812 145.269531 151.082031 145.269531 140.496094 122.472656 Z M 261.148438 122.472656 C 250.566406 145.269531 240.777344 145.269531 227.015625 164.886719 C 233.367188 191.664062 228.605469 205.710938 222.785156 215.785156 C 228.871094 220.558594 237.601562 220.824219 245.273438 215.257812 C 280.464844 188.214844 268.292969 141.03125 261.148438 122.472656 Z M 318.828125 138.113281 C 301.894531 138.644531 286.285156 145.535156 273.054688 153.753906 C 274.644531 172.574219 271.996094 194.84375 255.328125 211.808594 C 257.179688 211.808594 259.296875 211.542969 261.414062 211.28125 C 303.484375 203.0625 288.136719 170.457031 336.027344 139.703125 C 330.207031 138.378906 324.386719 137.847656 318.828125 138.113281 Z M 83.082031 138.113281 C 77.523438 137.847656 71.703125 138.378906 65.882812 139.703125 C 113.773438 170.191406 98.425781 203.0625 140.496094 211.28125 C 142.613281 211.542969 144.730469 211.808594 146.582031 211.808594 C 129.914062 194.578125 127.265625 172.574219 128.855469 153.753906 C 115.625 145.269531 100.015625 138.644531 83.082031 138.113281 Z M 83.082031 138.113281"/></g></svg>