<svg xmlns="http://www.w3.org/2000/svg" xmlns:xlink="http://www.w3.org/1999/xlink" viewBox="0 0 1130.748 1080">
  <defs>
    <symbol id="a" overflow="visible">
      <path d="M38-178.5v164.984h85.172V0H22.438v-178.5zm0 0"/>
    </symbol>
    <symbol id="b" overflow="visible">
      <path d="M99.453 1.781c-12.586 0-24.23-2.207-34.937-6.625s-20.059-10.66-28.047-18.734c-7.992-8.082-14.156-17.691-18.5-28.828-4.336-11.133-6.5-23.414-6.5-36.844s2.164-25.707 6.5-36.844c4.344-11.133 10.508-20.738 18.5-28.812 7.988-8.082 17.336-14.332 28.047-18.75s22.352-6.625 34.938-6.625c12.406 0 23.922 2.211 34.547 6.625s19.891 10.668 27.797 18.75c7.906 8.074 14.066 17.68 18.484 28.813 4.426 11.137 6.641 23.418 6.641 36.844s-2.215 25.711-6.641 36.844c-4.418 11.137-10.578 20.746-18.484 28.828-7.906 8.074-17.172 14.32-27.797 18.734S111.86 1.782 99.454 1.782zm0-13.516c13.426 0 25.535-3.141 36.328-9.422 10.801-6.289 19.391-15.219 25.766-26.781s9.563-25.332 9.563-41.312-3.187-29.789-9.562-41.437-14.965-20.566-25.766-26.766c-10.793-6.207-22.902-9.312-36.328-9.312-13.605 0-25.852 3.105-36.734 9.313-10.875 6.199-19.5 15.121-25.875 26.766s-9.562 25.461-9.562 41.438 3.188 29.75 9.563 41.313 15 20.492 25.875 26.781c10.883 6.281 23.129 9.422 36.734 9.422zm0 0"/>
    </symbol>
    <symbol id="c" overflow="visible">
      <path d="M11.469-178.5h130.828v13.516H84.656V0H69.359v-164.984h-57.89zm0 0"/>
    </symbol>
    <symbol id="d" overflow="visible">
      <path d="M21.422-178.5h15.547v112.203c0 12.918 2.297 23.418 6.891 31.5 4.594 8.074 10.754 13.938 18.484 17.594 7.738 3.648 16.367 5.469 25.891 5.469s18.063-1.82 25.625-5.469c7.563-3.656 13.594-9.52 18.094-17.594 4.508-8.082 6.766-18.582 6.766-31.5V-178.5h15.563v111.938c0 11.906-1.746 22.152-5.234 30.734s-8.297 15.641-14.422 21.172c-6.117 5.523-13.168 9.641-21.156 12.359s-16.492 4.078-25.5 4.078c-12.062 0-23.109-2.422-33.141-7.266S36.719-17.766 30.594-27.797c-6.117-10.031-9.172-22.953-9.172-38.766zm0 0"/>
    </symbol>
    <symbol id="e" overflow="visible">
      <path d="M27.547-42.844c1.188 4.762 3.477 9.523 6.875 14.281 3.406 4.762 8.207 8.715 14.406 11.859 6.207 3.148 14.328 4.719 24.359 4.719 14.102 0 24.555-3.227 31.359-9.687s10.203-14.445 10.203-23.969c0-7.312-1.914-13.348-5.734-18.109s-9.012-8.664-15.562-11.719c-6.543-3.062-13.891-5.785-22.047-8.172-6.98-1.863-13.742-3.941-20.281-6.234-6.543-2.301-12.449-5.148-17.719-8.547-5.273-3.406-9.437-7.785-12.5-13.141s-4.594-12.023-4.594-20.016c0-9.863 2.297-18.406 6.891-25.625 4.594-7.227 11.094-12.879 19.5-16.953 8.414-4.082 18.32-6.125 29.719-6.125 10.031 0 18.695 1.492 26 4.469 7.313 2.969 13.348 7.047 18.109 12.234 4.758 5.18 8.16 10.914 10.203 17.203l-13.516 5.109c-1.355-3.914-3.777-7.867-7.266-11.859-3.492-4-8.086-7.316-13.781-9.953-5.687-2.633-12.445-3.953-20.266-3.953-7.312 0-14.031 1.32-20.156 3.953-6.117 2.637-11 6.465-14.656 11.484-3.648 5.012-5.469 11-5.469 17.969 0 7.48 2.035 13.391 6.109 17.734 4.082 4.336 9.477 7.82 16.188 10.453 6.719 2.637 14.16 5.141 22.328 7.516 6.969 2.211 13.723 4.59 20.266 7.141s12.316 5.699 17.328 9.438c5.02 3.742 9.02 8.375 12 13.906 2.977 5.523 4.469 12.277 4.469 20.266 0 8.668-2 16.742-6 24.219s-10.168 13.477-18.5 17.984c-8.324 4.5-19.117 6.75-32.375 6.75-11.387 0-21.203-1.742-29.453-5.219-8.242-3.488-14.914-8.164-20.016-14.031s-8.59-12.453-10.453-19.766zm0 0"/>
    </symbol>
  </defs>
  <g fill="#484848">
    <use xlink:href="#a" x="174.853" y="873.013"/>
    <use xlink:href="#b" x="299.038" y="873.013"/>
    <use xlink:href="#c" x="491.308" y="873.013"/>
    <use xlink:href="#d" x="644.818" y="873.013"/>
    <use xlink:href="#e" x="820.513" y="873.013"/>
    <path d="M569.484 139.906c-29.316 50.633-48.633 98.527-60.434 143.258 14.848 12.945 28.523 26.594 41.086 40.871l19.348-37.824 19.566 37.824c12.371-14.277 26.047-27.926 41.086-40.871-11.992-44.73-31.34-92.625-60.652-143.258zm-165 88.043c-3.047 39.402-1.797 75.004 2.391 107.172.191 0 13.613 38.969 52.828 73.043 10.086 8.945 26.402 24.742 39.348 42.828 2.281-7.996 14.73-54.277 45-115C511.5 297.73 466.543 260.5 404.484 227.949zm330 0C672.426 260.5 627.277 297.73 594.918 335.992c30.266 60.914 42.715 107.004 45 115 12.945-18.086 29.258-33.883 39.348-42.828 39.215-34.262 52.824-73.043 52.824-73.043 4.191-32.168 5.438-67.77 2.395-107.172zm0 0"/>
  </g>
  <path fill="#900" d="M286.227 289.254c2.473 29.313 5.223 67.441 31.305 107.605 14.844 5.902 34.281 15.863 49.129 25 5.711-48.539 23.262-86.738 23.262-86.738-35.789-15.418-61.82-11.984-103.695-45.867zm0 0"/>
  <path fill="#069" d="M852.961 289.254c-41.879 33.883-68.125 30.449-103.914 45.867 0 0 17.551 38.199 23.262 86.738 14.848-9.137 34.281-19.098 49.129-25 26.078-40.164 29.047-78.293 31.523-107.605zm0 0"/>
  <path fill="#396" d="M569.484 312.078c-92.32 178.359-77.223 255.047-46.957 299.781 23.605 34.836 70.527 34.836 94.129 0 30.266-44.734 45.148-121.418-47.172-299.781zm0 0"/>
  <path fill="#484848" d="M398.617 346.645c-19.988 52.348-55.074 186.031 45.434 262.172 21.129 16.18 46.156 15.418 63.477 1.52-16.371-27.98-29.875-67.934-12.172-143.695-38.453-55.199-66.855-55.656-96.738-119.996zm341.516 0c-29.691 64.527-58.066 64.797-96.52 119.996 17.703 75.762 4.199 115.715-12.172 143.695 17.512 13.707 42.348 14.66 63.477-1.52 100.316-76.332 65.395-209.824 45.215-262.172zm163.695 44.347c-47.922 1.668-92.375 20.648-129.781 44.348 4.949 52.918-2.793 115.805-50 164.344 5.523-.187 11.059-1.031 16.957-2.172 119.543-22.652 75.824-115.344 211.738-201.957-16.609-3.758-32.937-5.121-48.914-4.562zm-668.473.215c-15.973-.539-32.305.805-48.914 4.566 135.914 86.422 92.199 179.305 211.738 201.953 5.902 1.145 11.438 1.793 16.957 2.176-47.207-48.73-54.949-111.617-50-164.348-37.402-23.84-81.855-42.723-129.781-44.348zm0 0"/>
</svg>
